<svg xmlns="http://www.w3.org/2000/svg" width="16" height="16" fill="currentColor" viewBox="0 0 1024 1024">
  <path d="M512 1024C229.222 1024 0 794.778 0 512S229.222 0 512 0s512 229.222 512 512-229.222 512-512 512z m259.2-568.889H457.956c-8.533 0-15.644 7.111-15.644 15.645v65.422c0 8.533 7.111 15.644 15.644 15.644H697.6c8.533 0 15.644 7.112 15.644 15.645v15.644c0 45.511-36.978 82.489-82.489 82.489H364.8c-8.533 0-15.644-7.111-15.644-15.644V305.778c0-45.511 36.978-82.49 82.488-82.49h339.556c8.533 0 15.644 7.112 15.644 15.645v65.422c0 8.533-7.111 15.645-15.644 15.645H431.756c-8.534 0-15.645 7.111-15.645 15.644v65.423c0 8.533 7.111 15.644 15.645 15.644h339.555c8.533 0 15.645 7.111 15.645 15.645v15.644c0 8.533-7.112 15.645-15.645 15.645z"/>
</svg> 